<svg width="51" height="51" viewBox="0 0 51 51" fill="none" xmlns="http://www.w3.org/2000/svg">
<path d="M47.3084 38.7379C47.3323 38.6642 47.3485 38.5864 47.3485 38.5046V11.5049C47.3485 11.4225 47.3323 11.3443 47.3079 11.2701C47.3043 11.2599 47.3023 11.2497 47.2982 11.2396C47.2657 11.1527 47.2179 11.0744 47.158 11.0058C47.1539 11.0012 47.1534 10.9956 47.1493 10.991C47.1468 10.9885 47.1437 10.9875 47.1412 10.985C47.0771 10.9169 47.0014 10.862 46.9166 10.8208C46.91 10.8177 46.9049 10.8137 46.8983 10.8106C46.818 10.7746 46.7306 10.7542 46.6386 10.7481C46.6294 10.7476 46.6208 10.7456 46.6116 10.7456C46.603 10.7451 46.5954 10.743 46.5867 10.743H4.30187C4.29323 10.743 4.2851 10.7451 4.27646 10.7456C4.26833 10.7461 4.2602 10.7476 4.25207 10.7481C4.15907 10.7542 4.07013 10.7751 3.98882 10.8117C3.98374 10.8137 3.97967 10.8172 3.97459 10.8193C3.8882 10.8604 3.81146 10.9163 3.74692 10.9855C3.74438 10.988 3.74133 10.9885 3.73879 10.991C3.73472 10.9951 3.73421 11.0007 3.73015 11.0053C3.67018 11.0739 3.6219 11.1527 3.58937 11.2396C3.58531 11.2497 3.58328 11.2599 3.57972 11.2706C3.55532 11.3448 3.53906 11.423 3.53906 11.5054V38.5056C3.53906 38.5889 3.55583 38.6682 3.58073 38.7434C3.58429 38.7536 3.58633 38.7633 3.58988 38.7734C3.62292 38.8608 3.6717 38.9396 3.73218 39.0082C3.73574 39.0123 3.73675 39.0174 3.74031 39.0214C3.74336 39.025 3.74742 39.027 3.75098 39.0306C3.77588 39.0565 3.80333 39.0794 3.83179 39.1017C3.84449 39.1114 3.85567 39.1231 3.86888 39.1322C3.90243 39.1556 3.93851 39.1744 3.97561 39.1917C3.98475 39.1957 3.99289 39.2024 4.00203 39.2059C4.09402 39.245 4.19515 39.2674 4.30136 39.2674H46.5857C46.6919 39.2674 46.7931 39.2456 46.885 39.2059C46.8993 39.1998 46.9125 39.1907 46.9262 39.1836C46.9577 39.1678 46.9892 39.1515 47.0182 39.1317C47.0334 39.121 47.0472 39.1073 47.0619 39.0956C47.0878 39.0748 47.1132 39.054 47.1356 39.0301C47.1397 39.026 47.1442 39.023 47.1483 39.0189C47.1524 39.0143 47.1534 39.0082 47.1574 39.0036C47.2169 38.9355 47.2647 38.8573 47.2972 38.7709C47.3023 38.7597 47.3048 38.749 47.3084 38.7379ZM5.06417 13.2338L17.8947 24.9536L5.06417 36.767V13.2338ZM31.3615 24.3794C31.3087 24.4139 31.2528 24.4429 31.2086 24.4917C31.1918 24.51 31.1862 24.5339 31.1715 24.5532L25.444 29.7847L6.26658 12.2672H44.6215L31.3615 24.3794ZM19.025 25.9858L24.9297 31.3795C25.0756 31.5126 25.2596 31.5792 25.444 31.5792C25.6285 31.5792 25.8125 31.5126 25.9578 31.3795L31.7894 26.0529L44.618 37.7428H6.2554L19.025 25.9858ZM32.9202 25.0202L45.8239 13.2338V36.7792L32.9202 25.0202Z" fill="black"/>
</svg>
