<svg width="56" height="56" viewBox="0 0 56 56" fill="none" xmlns="http://www.w3.org/2000/svg">
<path d="M32.4945 39.0581L40.8611 25.605C40.8884 25.5614 40.9113 25.5157 40.9291 25.4682C42.3739 23.1122 43.1367 20.4208 43.1367 17.673C43.1367 9.42974 36.4303 2.72327 28.1871 2.72327C19.9439 2.72327 13.2369 9.42974 13.2369 17.673C13.2369 20.4214 14.0008 23.1139 15.4467 25.4716C15.4634 25.5129 15.483 25.5531 15.5064 25.5921L23.5727 39.0916C17.3111 39.9766 13.1934 42.5514 13.1934 45.6747C13.1934 49.5447 19.7697 52.5754 28.1648 52.5754C36.5598 52.5754 43.1361 49.5441 43.1361 45.6747C43.1367 42.5369 38.827 39.9046 32.4945 39.0581ZM16.9495 24.7177C15.6158 22.5949 14.911 20.1591 14.911 17.673C14.911 10.3527 20.8663 4.39737 28.1871 4.39737C35.5073 4.39737 41.4626 10.3527 41.4626 17.673C41.4626 20.1602 40.7578 22.596 39.4247 24.7177C39.3968 24.7623 39.3739 24.8086 39.3555 24.8566L30.5163 39.0681C30.3835 39.2718 30.3573 39.3181 30.1949 39.5849L27.9627 43.1742L17.0242 24.8684C17.0047 24.8165 16.9796 24.7657 16.9495 24.7177ZM28.1653 50.9013C20.3289 50.9013 14.868 48.1463 14.868 45.6747C14.868 43.4314 18.9807 41.3176 24.5124 40.663L27.2301 45.2115C27.3802 45.4621 27.6491 45.6167 27.941 45.6189C27.9432 45.6189 27.946 45.6189 27.9482 45.6189C28.2373 45.6189 28.5063 45.4694 28.6592 45.2238L31.5163 40.6301C37.1362 41.2389 41.4621 43.4063 41.4621 45.6747C41.4626 48.1468 36.0017 50.9013 28.1653 50.9013Z" fill="black"/>
<path d="M33.601 17.673C33.601 14.6758 31.1624 12.2372 28.1653 12.2372C25.1681 12.2372 22.7295 14.6758 22.7295 17.673C22.7295 20.6702 25.1681 23.1088 28.1653 23.1088C31.1624 23.1088 33.601 20.6702 33.601 17.673ZM24.4036 17.673C24.4036 15.5988 26.0911 13.9113 28.1653 13.9113C30.2395 13.9113 31.9269 15.5988 31.9269 17.673C31.9269 19.7472 30.24 21.4347 28.1653 21.4347C26.0905 21.4347 24.4036 19.7472 24.4036 17.673Z" fill="black"/>
</svg>
