<svg width="50" height="50" viewBox="0 0 50 50" fill="none" xmlns="http://www.w3.org/2000/svg">
<path d="M31.3538 10.4167C33.3887 10.8137 35.2588 11.8089 36.7248 13.2749C38.1908 14.7409 39.186 16.611 39.583 18.6459L31.3538 10.4167ZM31.3538 2.08337C35.5815 2.55303 39.5238 4.44624 42.5335 7.45214C45.5432 10.458 47.4413 14.398 47.9163 18.625L31.3538 2.08337ZM45.833 35.25V41.5C45.8353 42.0803 45.7165 42.6546 45.4841 43.1862C45.2516 43.7178 44.9107 44.195 44.4832 44.5873C44.0556 44.9795 43.5509 45.2781 43.0012 45.464C42.4516 45.6499 41.8692 45.7189 41.2913 45.6667C34.8806 44.9701 28.7226 42.7795 23.3122 39.2709C18.2785 36.0723 14.0108 31.8046 10.8122 26.7709C7.29128 21.3359 5.10016 15.1479 4.41632 8.70837C4.36426 8.13226 4.43273 7.55163 4.61737 7.00343C4.802 6.45523 5.09876 5.95148 5.48875 5.52425C5.87874 5.09703 6.35342 4.75569 6.88255 4.52196C7.41169 4.28824 7.9837 4.16725 8.56216 4.16671H14.8122C15.8232 4.15676 16.8034 4.51479 17.57 5.17407C18.3366 5.83335 18.8373 6.74889 18.9788 7.75004C19.2426 9.75018 19.7318 11.7141 20.4372 13.6042C20.7175 14.3499 20.7781 15.1603 20.612 15.9394C20.4458 16.7185 20.0598 17.4336 19.4997 18L16.8538 20.6459C19.8196 25.8616 24.1381 30.1801 29.3538 33.1459L31.9997 30.5C32.5661 29.9399 33.2812 29.5539 34.0603 29.3877C34.8394 29.2216 35.6498 29.2822 36.3955 29.5625C38.2856 30.2679 40.2495 30.7571 42.2497 31.0209C43.2617 31.1636 44.1859 31.6734 44.8466 32.4532C45.5073 33.2329 45.8583 34.2283 45.833 35.25Z" stroke="black" stroke-width="2" stroke-linecap="round" stroke-linejoin="round"/>
</svg>
